<svg width="64" height="64" viewBox="0 0 64 64" fill="none" xmlns="http://www.w3.org/2000/svg">
<g id="16695937561643307054 1">
<g id="project">
<path id="Vector" d="M62 7C61.9984 5.67441 61.4711 4.40356 60.5338 3.46622C59.5964 2.52888 58.3256 2.00159 57 2H7C5.76005 1.99876 4.56387 2.45828 3.64367 3.28938C2.72347 4.12047 2.1449 5.26383 2.02029 6.49751C1.89568 7.73118 2.2339 8.96715 2.96931 9.96548C3.70472 10.9638 4.78485 11.6533 6 11.9V52C6 52.2652 6.10536 52.5196 6.29289 52.7071C6.48043 52.8946 6.73478 53 7 53H58C58.2652 53 58.5196 52.8946 58.7071 52.7071C58.8946 52.5196 59 52.2652 59 52V11.576C59.8906 11.1873 60.6487 10.5475 61.1815 9.73479C61.7143 8.9221 61.9987 7.97177 62 7V7ZM57 51H8V12H57V51ZM57 10H7C6.38174 9.99744 5.77937 9.80392 5.2753 9.44591C4.77123 9.08791 4.39008 8.58291 4.184 8H57V6H4.184C4.39008 5.41709 4.77123 4.91209 5.2753 4.55409C5.77937 4.19609 6.38174 4.00257 7 4H57C57.7956 4 58.5587 4.31607 59.1213 4.87868C59.6839 5.44129 60 6.20435 60 7C60 7.79565 59.6839 8.55871 59.1213 9.12132C58.5587 9.68393 57.7956 10 57 10V10Z" fill="black"/>
<path id="Vector_2" d="M55.443 57.1L49.443 54.1C49.431 54.094 49.417 54.1 49.404 54.089C49.3618 54.0746 49.3187 54.0629 49.275 54.054C49.1911 54.0251 49.1036 54.0076 49.015 54.002C49.008 54.002 49.003 54.002 48.996 54.002H12C11.2044 54.002 10.4413 54.3181 9.87868 54.8807C9.31607 55.4433 9 56.2063 9 57.002V59.002C9 59.7976 9.31607 60.5607 9.87868 61.1233C10.4413 61.6859 11.2044 62.002 12 62.002H49C49.1471 62.001 49.292 61.9668 49.424 61.902C49.4297 61.9024 49.4353 61.9024 49.441 61.902L55.441 58.902C55.6071 58.819 55.7469 58.6913 55.8445 58.5333C55.9422 58.3753 55.9939 58.1932 55.9939 58.0075C55.9939 57.8218 55.9422 57.6397 55.8445 57.4817C55.7469 57.3237 55.6071 57.196 55.441 57.113L55.443 57.1ZM48 57H16V56H48V57ZM11 59V57C11 56.7348 11.1054 56.4804 11.2929 56.2929C11.4804 56.1054 11.7348 56 12 56H14V60H12C11.7348 60 11.4804 59.8946 11.2929 59.7071C11.1054 59.5196 11 59.2652 11 59ZM16 59H48V60H16V59ZM50 59.378V56.615L52.761 58L50 59.378Z" fill="black"/>
<path id="Vector_3" d="M10 21H32C32.2652 21 32.5196 20.8946 32.7071 20.7071C32.8946 20.5196 33 20.2652 33 20V14C33 13.7348 32.8946 13.4804 32.7071 13.2929C32.5196 13.1054 32.2652 13 32 13H10C9.73478 13 9.48043 13.1054 9.29289 13.2929C9.10536 13.4804 9 13.7348 9 14V20C9 20.2652 9.10536 20.5196 9.29289 20.7071C9.48043 20.8946 9.73478 21 10 21ZM11 15H31V19H11V15Z" fill="black"/>
<path id="Vector_4" d="M32 48C34.5715 48.0014 37.0616 47.098 39.034 45.448L41.293 47.707C41.4805 47.8945 41.7348 47.9999 42 48H56V46H42.414L40.448 44.034C42.0057 42.1725 42.9008 39.8462 42.9926 37.4207C43.0844 34.9951 42.3676 32.6079 40.955 30.634L44.343 28H49V26H44C43.7777 25.9998 43.5616 26.0737 43.386 26.21L39.652 29.11C38.1645 27.6612 36.2967 26.6637 34.2653 26.2334C32.2339 25.8031 30.1221 25.9575 28.1749 26.6788C26.2277 27.4 24.5249 28.6586 23.264 30.3084C22.0031 31.9582 21.2357 33.9317 21.051 36H9V38H21.051C21.3026 40.7311 22.5645 43.27 24.5896 45.1196C26.6148 46.9692 29.2573 47.9964 32 48V48ZM32 46C29.7875 45.9968 27.6534 45.1796 26.0046 43.7043C24.3557 42.229 23.3072 40.1986 23.059 38H31.586L37.611 44.025C36.0206 45.3039 34.0408 46.0008 32 46V46ZM32 28C34.2418 28.0009 36.4017 28.8427 38.053 30.359L34.386 33.21L35.614 34.79L39.378 31.862C40.4913 33.4502 41.0587 35.3569 40.9951 37.2954C40.9314 39.2339 40.2401 41.0993 39.025 42.611L32.707 36.293C32.5195 36.1054 32.2652 36.0001 32 36H23.059C23.3072 33.8014 24.3557 31.771 26.0046 30.2957C27.6534 28.8203 29.7875 28.0032 32 28V28Z" fill="black"/>
<path id="Vector_5" d="M18 33H9V35H18V33Z" fill="black"/>
<path id="Vector_6" d="M18 30H9V32H18V30Z" fill="black"/>
<path id="Vector_7" d="M18 27H9V29H18V27Z" fill="black"/>
<path id="Vector_8" d="M56 43H47V45H56V43Z" fill="black"/>
<path id="Vector_9" d="M56 40H47V42H56V40Z" fill="black"/>
<path id="Vector_10" d="M56 37H47V39H56V37Z" fill="black"/>
<path id="Vector_11" d="M49 23H41V25H49V23Z" fill="black"/>
<path id="Vector_12" d="M49 20H41V22H49V20Z" fill="black"/>
<path id="Vector_13" d="M49 17H41V19H49V17Z" fill="black"/>
<path id="Vector_14" d="M11 48H9V50H11V48Z" fill="black"/>
<path id="Vector_15" d="M14 48H12V50H14V48Z" fill="black"/>
<path id="Vector_16" d="M11 45H9V47H11V45Z" fill="black"/>
</g>
</g>
</svg>
