<svg width="100" height="100" viewBox="0 0 100 100" fill="none" xmlns="http://www.w3.org/2000/svg">
<g id="8273568811580217333 1">
<g id="Group">
<g id="Group_2">
<path id="Vector" d="M87.5734 0H12.4266C11.6159 0 10.9589 0.657143 10.9589 1.46771V84.0509C10.9589 84.4364 11.1161 84.816 11.3887 85.0887L25.8701 99.5701C26.1429 99.8429 26.5223 100 26.908 100H87.5734C88.3842 100 89.0411 99.3429 89.0411 98.5323V78.5714C89.0411 77.7609 88.3842 77.1037 87.5734 77.1037C86.7626 77.1037 86.1057 77.7609 86.1057 78.5714V97.0646H28.3758V84.0509C28.3758 83.2403 27.7188 82.5832 26.908 82.5832H13.8943V2.93542H86.1057V18.7867C86.1057 19.5973 86.7626 20.2544 87.5734 20.2544C88.3842 20.2544 89.0411 19.5973 89.0411 18.7867V1.46771C89.0411 0.657143 88.3842 0 87.5734 0ZM25.4403 94.989L15.9699 85.5186H25.4403V94.989Z" fill="black"/>
<path id="Vector_2" d="M87.5734 24.364C86.7627 24.364 86.1057 25.0211 86.1057 25.8317V68.4931C86.1057 69.3037 86.7627 69.9609 87.5734 69.9609C88.3842 69.9609 89.0411 69.3037 89.0411 68.4931V25.8317C89.0411 25.0211 88.3842 24.364 87.5734 24.364Z" fill="black"/>
<path id="Vector_3" d="M54.6967 36.0078H45.3034C42.7675 36.0078 40.7045 38.0708 40.7045 40.6066V51.5655C40.7045 52.3761 41.3615 53.0333 42.1722 53.0333H57.8278C58.6386 53.0333 59.2955 52.3761 59.2955 51.5655V40.6066C59.2955 38.0708 57.2325 36.0078 54.6967 36.0078ZM56.3601 50.0978H43.6399V40.6066C43.6399 39.6894 44.3861 38.9432 45.3034 38.9432H54.6967C55.6139 38.9432 56.3601 39.6894 56.3601 40.6066V50.0978Z" fill="black"/>
<path id="Vector_4" d="M50 35.8121C54.2623 35.8121 57.73 32.3444 57.73 28.0822C57.73 23.82 54.2623 20.3523 50 20.3523C42.902 20.3523 39.8204 25.1757 39.1828 27.7262C38.9548 28.6388 39.6677 29.5499 40.6067 29.5499H42.4116C43.0994 33.1125 46.2396 35.8121 50 35.8121ZM50 32.8767C47.8681 32.8767 46.0576 31.4777 45.4362 29.5499H54.564C53.9425 31.4777 52.1319 32.8767 50 32.8767ZM50 23.2877C52.1321 23.2877 53.9435 24.6863 54.5648 26.6145H42.9265C43.9474 25.13 46.0169 23.2877 50 23.2877Z" fill="black"/>
<path id="Vector_5" d="M67.2211 73.5812H32.7789C31.9681 73.5812 31.3112 74.2384 31.3112 75.0489C31.3112 75.8595 31.9681 76.5166 32.7789 76.5166H67.2211C68.0319 76.5166 68.6888 75.8595 68.6888 75.0489C68.6888 74.2384 68.0319 73.5812 67.2211 73.5812Z" fill="black"/>
<path id="Vector_6" d="M32.7789 84.3444H42.1722C42.983 84.3444 43.6399 83.6873 43.6399 82.8767C43.6399 82.0661 42.983 81.409 42.1722 81.409H32.7789C31.9681 81.409 31.3112 82.0661 31.3112 82.8767C31.3112 83.6873 31.9681 84.3444 32.7789 84.3444Z" fill="black"/>
<path id="Vector_7" d="M59.2955 82.8767C59.2955 82.0661 58.6386 81.409 57.8278 81.409H48.4344C47.6237 81.409 46.9667 82.0661 46.9667 82.8767C46.9667 83.6873 47.6237 84.3444 48.4344 84.3444H57.8278C58.6386 84.3444 59.2955 83.6873 59.2955 82.8767Z" fill="black"/>
<path id="Vector_8" d="M32.7789 92.1722H54.6967C55.5074 92.1722 56.1644 91.5151 56.1644 90.7045C56.1644 89.8939 55.5074 89.2368 54.6967 89.2368H32.7789C31.9681 89.2368 31.3112 89.8939 31.3112 90.7045C31.3112 91.5151 31.9681 92.1722 32.7789 92.1722Z" fill="black"/>
<path id="Vector_9" d="M67.2212 89.2368H60.9589C60.1482 89.2368 59.4912 89.8939 59.4912 90.7045C59.4912 91.5151 60.1482 92.1722 60.9589 92.1722H67.2212C68.0319 92.1722 68.6889 91.5151 68.6889 90.7045C68.6889 89.8939 68.0319 89.2368 67.2212 89.2368Z" fill="black"/>
<path id="Vector_10" d="M67.2211 81.409H64.09C63.2793 81.409 62.6223 82.0661 62.6223 82.8767C62.6223 83.6873 63.2793 84.3444 64.09 84.3444H67.2211C68.0319 84.3444 68.6889 83.6873 68.6889 82.8767C68.6889 82.0661 68.0319 81.409 67.2211 81.409Z" fill="black"/>
<path id="Vector_11" d="M79.4937 40.5088H81.3111C82.1219 40.5088 82.7789 39.8517 82.7789 39.0411C82.7789 38.2305 82.1219 37.5734 81.3111 37.5734H79.6466C79.6466 37.5407 79.6477 37.5082 79.6477 37.4756C79.6477 21.6198 67.1364 8.63191 51.4677 7.8644V6.1644C51.4677 5.35383 50.8108 4.69669 50 4.69669C49.1892 4.69669 48.5323 5.35383 48.5323 6.1644V7.8644C32.8636 8.63211 20.3522 21.62 20.3522 37.4756C20.3522 37.5082 20.3534 37.5407 20.3534 37.5734H18.6888C17.8781 37.5734 17.2211 38.2305 17.2211 39.0411C17.2211 39.8517 17.8781 40.5088 18.6888 40.5088H20.5063C21.9812 54.9577 33.8753 66.3687 48.5323 67.0867V68.7867C48.5323 69.5973 49.1892 70.2544 50 70.2544C50.8108 70.2544 51.4677 69.5973 51.4677 68.7867V67.0867C66.1245 66.3687 78.0188 54.9577 79.4937 40.5088ZM51.4677 64.147V64.09C51.4677 63.2795 50.8108 62.6223 50 62.6223C49.1892 62.6223 48.5323 63.2795 48.5323 64.09V64.147C35.4939 63.4374 24.9155 53.3347 23.4605 40.5051C24.236 40.4658 24.8532 39.8264 24.8532 39.0411C24.8532 38.2305 24.1963 37.5734 23.3855 37.5734H23.2888C23.2888 37.5407 23.2877 37.5082 23.2877 37.4756C23.2877 23.2388 34.483 11.5687 48.5323 10.8041V10.8611C48.5323 11.6716 49.1892 12.3288 50 12.3288C50.8108 12.3288 51.4677 11.6716 51.4677 10.8611V10.8041C65.517 11.5687 76.7123 23.239 76.7123 37.4756C76.7123 37.5082 76.7111 37.5407 76.7111 37.5734H76.6145C75.8037 37.5734 75.1468 38.2305 75.1468 39.0411C75.1468 39.8264 75.764 40.4658 76.5395 40.5051C75.0845 53.3347 64.5061 63.4374 51.4677 64.147Z" fill="black"/>
<path id="Vector_12" d="M50 14.09C37.1051 14.09 26.6145 24.5806 26.6145 37.4755C26.6145 50.3705 37.1051 60.8611 50 60.8611C62.8949 60.8611 73.3855 50.3705 73.3855 37.4755C73.3855 24.5806 62.8949 14.09 50 14.09ZM50 57.9256C38.7239 57.9256 29.5499 48.7519 29.5499 37.4755C29.5499 26.1992 38.7239 17.0254 50 17.0254C61.2761 17.0254 70.4501 26.1992 70.4501 37.4755C70.4501 48.7519 61.2761 57.9256 50 57.9256Z" fill="black"/>
</g>
</g>
</g>
</svg>
