<svg width="32" height="32" viewBox="0 0 32 32" fill="none" xmlns="http://www.w3.org/2000/svg">
<g id="arrow 1">
<path id="Arrow_Forward" fill-rule="evenodd" clip-rule="evenodd" d="M32 16.009C32 15.742 31.89 15.487 31.707 15.295L21.808 5.296C21.417 4.901 20.784 4.902 20.394 5.296C20.003 5.69 20.003 6.33 20.394 6.724L28.587 14.999H1C0.448 14.999 0 15.451 0 16.009C0 16.567 0.448 17.019 1 17.019H28.586L20.394 25.294C20.003 25.688 20.004 26.328 20.394 26.722C20.785 27.116 21.418 27.116 21.808 26.722L31.707 16.723C31.894 16.534 31.997 16.274 32 16.009Z" fill="#121313"/>
</g>
</svg>
