<svg width="100" height="100" viewBox="0 0 100 100" fill="none" xmlns="http://www.w3.org/2000/svg">
<g id="icons8-github-squared 1">
<path id="Vector" d="M29 17C22.383 17 17 22.383 17 29V71C17 77.617 22.383 83 29 83H71C77.617 83 83 77.617 83 71V29C83 22.383 77.617 17 71 17H29ZM29 19H71C76.514 19 81 23.486 81 29V71C81 76.514 76.514 81 71 81H29C23.486 81 19 76.514 19 71V29C19 23.486 23.486 19 29 19ZM34.5 23C28.159 23 23 28.159 23 34.5V65.5C23 71.841 28.159 77 34.5 77H41.9766H58.9766H65.5C71.841 77 77 71.841 77 65.5V50.5C77 50.224 76.776 50 76.5 50C76.224 50 76 50.224 76 50.5V65.5C76 71.29 71.29 76 65.5 76H59.4766V67.6543C59.4766 65.4413 58.4394 63.368 56.7324 62H57.4258C64.5988 62 70.4336 56.1861 70.4336 49.0391C70.4336 45.8021 69.2338 42.7106 67.0488 40.3066C67.3788 38.2426 67.3842 35.1438 66.4492 32.3418C66.3802 32.1378 66.1896 32 65.9746 32C61.9236 32 58.5032 34.689 57.0762 36H44.668C41.168 32.696 38.0126 32 35.9766 32C35.7616 32 35.571 32.1378 35.502 32.3418C34.734 34.6428 34.3965 37.3966 34.6055 39.5996C32.0065 42.0536 30.5215 45.479 30.5215 49.041C30.5215 56.187 36.3553 62 43.5273 62H44.1953C42.8743 63.032 41.9284 64.4511 41.5664 65.9961C39.5694 65.9641 37.2799 65.6685 36.2109 64.0645C33.7859 60.4245 32.5626 60.1523 30.9746 60.1523C30.3116 60.1523 29.8125 60.4423 29.6035 60.9473C29.3095 61.6553 29.6525 62.5978 30.5215 63.4668C31.6935 64.6398 31.6947 64.6384 32.8887 67.0254C33.6107 68.4694 35.6796 70.8631 41.4766 70.9941V76H34.5C28.71 76 24 71.29 24 65.5V34.5C24 28.71 28.71 24 34.5 24H65.5C65.776 24 66 23.776 66 23.5C66 23.224 65.776 23 65.5 23H34.5ZM36.3379 33.0078C38.2059 33.0918 40.9572 33.8503 44.0352 36.7773L44.127 36.8652C44.22 36.9522 44.3417 37 44.4688 37H57.2734C57.4004 37 57.534 36.9425 57.627 36.8555C58.819 35.7325 61.9313 33.1698 65.6133 33.0078C66.4123 35.6528 66.3545 38.5249 66.0215 40.3789C65.9935 40.5359 66.0414 40.6955 66.1504 40.8105C68.2664 43.0525 69.4336 45.9751 69.4336 49.0391C69.4336 55.6341 64.0468 61 57.4258 61H54.9766C54.7416 61 54.5383 61.1636 54.4883 61.3926C54.4373 61.6216 54.5536 61.8551 54.7676 61.9531C57.0196 62.9861 58.4766 65.2233 58.4766 67.6543V76H42.4766V70.5C42.4766 70.224 42.2526 70 41.9766 70C37.7956 70 34.8852 68.7841 33.7832 66.5781C32.5402 64.0931 32.5155 64.0468 31.2285 62.7598C30.5575 62.0878 30.4413 61.5361 30.5273 61.3301C30.5903 61.1751 30.8346 61.1523 30.9746 61.1523C32.0976 61.1523 33.0679 61.1521 35.3789 64.6191C36.7859 66.7281 39.6436 67 41.9766 67C42.2216 67 42.4297 66.8221 42.4688 66.5801C42.7867 64.6311 44.2096 62.8591 46.1836 61.9551C46.3976 61.8571 46.5158 61.6235 46.4648 61.3945C46.4148 61.1645 46.2116 61 45.9766 61H43.5293C36.9093 61 31.5215 55.6341 31.5215 49.0391C31.5215 45.6741 32.9588 42.4391 35.4648 40.1641C35.5838 40.0551 35.646 39.8963 35.627 39.7363C35.398 37.7693 35.6759 35.1698 36.3379 33.0078ZM76.5 34C76.224 34 76 34.224 76 34.5V38C76 38.276 76.224 38.5 76.5 38.5C76.776 38.5 77 38.276 77 38V34.5C77 34.224 76.776 34 76.5 34ZM76.5 41C76.224 41 76 41.224 76 41.5V48C76 48.276 76.224 48.5 76.5 48.5C76.776 48.5 77 48.276 77 48V41.5C77 41.224 76.776 41 76.5 41Z" fill="#D4D4D8"/>
</g>
</svg>
