<svg width="100" height="100" viewBox="0 0 100 100" fill="none" xmlns="http://www.w3.org/2000/svg">
<g id="icons8-linkedin 1">
<g id="surface27183757">
<path id="Vector" d="M30.3047 17.6523C23.1367 17.6523 17.3047 23.4844 17.3047 30.6523V69.6523C17.3047 76.8242 23.1367 82.6523 30.3047 82.6523H69.3047C76.4766 82.6523 82.3047 76.8242 82.3047 69.6523V30.6523C82.3047 23.4844 76.4766 17.6523 69.3047 17.6523H30.3047ZM30.3047 19.6523H69.3047C75.3711 19.6523 80.3047 24.5898 80.3047 30.6523V69.6523C80.3047 75.7187 75.3711 80.6523 69.3047 80.6523H30.3047C24.2422 80.6523 19.3047 75.7187 19.3047 69.6523V30.6523C19.3047 24.5898 24.2422 19.6523 30.3047 19.6523ZM33.1445 22.6523C27.168 22.6523 22.3047 27.5156 22.3047 33.4883V66.8164C22.3047 72.793 27.168 77.6523 33.1445 77.6523H66.4727C72.4453 77.6523 77.3047 72.793 77.3047 66.8164V48.1523C77.3047 47.8789 77.082 47.6523 76.8047 47.6523C76.5312 47.6523 76.3047 47.8789 76.3047 48.1523V66.8164C76.3047 72.2422 71.8945 76.6523 66.4727 76.6523H33.1445C27.7188 76.6523 23.3047 72.2422 23.3047 66.8164V33.4883C23.3047 28.0664 27.7188 23.6523 33.1445 23.6523H66.8047C67.082 23.6523 67.3047 23.4297 67.3047 23.1523C67.3047 22.875 67.082 22.6523 66.8047 22.6523H33.1445ZM38.8242 35.6953C36.7383 35.6953 35.2227 37.1563 35.2227 39.1758C35.2227 41.1914 36.707 42.6523 38.7891 42.6523C40.875 42.6523 42.3906 41.1914 42.3906 39.1641C42.3398 37.1211 40.8711 35.6953 38.8242 35.6953ZM38.8242 36.6953C40.3437 36.6953 41.3555 37.6758 41.3906 39.1758C41.3906 40.6367 40.3203 41.6562 38.7539 41.6562C37.2656 41.6562 36.2227 40.6367 36.2227 39.1758C36.2227 37.7148 37.293 36.6953 38.8242 36.6953ZM76.8047 37.6523C76.5312 37.6523 76.3047 37.8789 76.3047 38.1523V40.1523C76.3047 40.4297 76.5312 40.6523 76.8047 40.6523C77.082 40.6523 77.3047 40.4297 77.3047 40.1523V38.1523C77.3047 37.8789 77.082 37.6523 76.8047 37.6523ZM76.8047 41.6523C76.5312 41.6523 76.3047 41.8789 76.3047 42.1523V46.1523C76.3047 46.4297 76.5312 46.6523 76.8047 46.6523C77.082 46.6523 77.3047 46.4297 77.3047 46.1523V42.1523C77.3047 41.8789 77.082 41.6523 76.8047 41.6523ZM57.5781 44.5312C55.375 44.543 53.5937 45.1992 52.3047 46.582V45.1523C52.3047 44.875 52.082 44.6523 51.8047 44.6523H45.7305C45.5937 44.6523 45.4609 44.707 45.3672 44.8047C45.2734 44.9062 45.2227 45.0391 45.2305 45.1758C45.3125 46.9258 45.2305 63.9766 45.2305 64.1484C45.2305 64.2852 45.2812 64.4102 45.375 64.5039C45.4688 64.6016 45.5977 64.6523 45.7305 64.6523H51.8047C52.082 64.6523 52.3047 64.4297 52.3047 64.1523V53.5391C52.3047 52.9258 52.3672 52.4727 52.4805 52.1836C52.7266 51.5859 53.4805 50.1875 55.2656 50.1875C57.9336 50.1875 58.2227 52.8945 58.2227 54.0625L58.3047 64.1562C58.3086 64.4297 58.5312 64.6523 58.8047 64.6523H64.8047C65.082 64.6523 65.3047 64.4297 65.3047 64.1523V53.9727C65.3047 50.6445 64.4844 48.1367 62.8633 46.5156C61.543 45.1992 59.7656 44.5312 57.5742 44.5312H57.5781ZM35.8047 44.6523C35.5312 44.6523 35.3047 44.8789 35.3047 45.1523V64.1523C35.3047 64.4297 35.5312 64.6523 35.8047 64.6523H41.8047C42.082 64.6523 42.3047 64.4297 42.3047 64.1523V45.1523C42.3047 44.8789 42.082 44.6523 41.8047 44.6523H35.8047ZM57.5586 45.5352H57.5781C59.4922 45.5352 61.0352 46.1055 62.1602 47.2266C63.582 48.6484 64.3047 50.918 64.3047 53.9766V63.6523H59.3008L59.2227 54.0625C59.2227 51.0586 57.707 49.1914 55.2695 49.1914C53.6094 49.1914 52.2187 50.168 51.5586 51.8086C51.3867 52.2187 51.3086 52.7852 51.3086 53.5391V63.6523H46.2344C46.2461 60.957 46.2969 48.6797 46.2422 45.6523H51.3086V47.957C51.25 48.0977 51.2734 48.2617 51.3516 48.3984C51.4375 48.5547 51.625 48.6523 51.8086 48.6523C52.0156 48.6523 52.1914 48.4883 52.2695 48.2891C52.9961 47.0898 54.3438 45.5352 57.5625 45.5352H57.5586ZM36.3047 45.6523H41.3047V63.6523H36.3047V45.6523Z" fill="#4B4B4B"/>
</g>
</g>
</svg>
