<svg width="26" height="20" viewBox="0 0 26 20" fill="none" xmlns="http://www.w3.org/2000/svg">
<g id="Menu 1" clip-path="url(#clip0_10_4)" filter="url(#filter0_d_10_4)">
<g id="Icons">
<g id="Rounded">
<g id="Navigation">
<g id="-Round-/-Navigation-/-menu">
<g id="Group">
<path id="&#240;&#159;&#148;&#185;-Icon-Color" fill-rule="evenodd" clip-rule="evenodd" d="M5 12H21C21.55 12 22 11.55 22 11C22 10.45 21.55 10 21 10H5C4.45 10 4 10.45 4 11C4 11.55 4.45 12 5 12ZM5 7H21C21.55 7 22 6.55 22 6C22 5.45 21.55 5 21 5H5C4.45 5 4 5.45 4 6C4 6.55 4.45 7 5 7ZM4 1C4 1.55 4.45 2 5 2H21C21.55 2 22 1.55 22 1C22 0.45 21.55 0 21 0H5C4.45 0 4 0.45 4 1Z" fill="#1D1D1D"/>
</g>
</g>
</g>
</g>
</g>
</g>
<defs>
<filter id="filter0_d_10_4" x="0" y="0" width="26" height="20" filterUnits="userSpaceOnUse" color-interpolation-filters="sRGB">
<feFlood flood-opacity="0" result="BackgroundImageFix"/>
<feColorMatrix in="SourceAlpha" type="matrix" values="0 0 0 0 0 0 0 0 0 0 0 0 0 0 0 0 0 0 127 0" result="hardAlpha"/>
<feOffset dy="4"/>
<feGaussianBlur stdDeviation="2"/>
<feComposite in2="hardAlpha" operator="out"/>
<feColorMatrix type="matrix" values="0 0 0 0 0 0 0 0 0 0 0 0 0 0 0 0 0 0 0.25 0"/>
<feBlend mode="normal" in2="BackgroundImageFix" result="effect1_dropShadow_10_4"/>
<feBlend mode="normal" in="SourceGraphic" in2="effect1_dropShadow_10_4" result="shape"/>
</filter>
<clipPath id="clip0_10_4">
<rect width="18" height="12" fill="white" transform="translate(4)"/>
</clipPath>
</defs>
</svg>
